<svg xmlns="http://www.w3.org/2000/svg" width="512" height="512" viewBox="0 0 512 512">
  <defs>
    <linearGradient id="bgGrad" x1="0%" y1="0%" x2="100%" y2="100%">
      <stop offset="0%" style="stop-color:#0f172a"/>
      <stop offset="100%" style="stop-color:#1e293b"/>
    </linearGradient>
    <linearGradient id="cloudGrad" x1="0%" y1="0%" x2="0%" y2="100%">
      <stop offset="0%" style="stop-color:#f1f5f9"/>
      <stop offset="100%" style="stop-color:#e2e8f0"/>
    </linearGradient>
  </defs>
  <rect width="512" height="512" rx="96" fill="url(#bgGrad)"/>
  <circle cx="180" cy="150" r="60" fill="#fbbf24"/>
  <circle cx="180" cy="150" r="45" fill="#fcd34d"/>
  <path d="M120 300c0-44 36-80 80-80 14 0 28 4 40 10 12-30 40-50 74-50 48 0 86 38 86 86 0 4 0 8-2 12 2 0 2 0 4 0 34 0 60 26 60 60s-26 60-60 60H160c-44 0-80-36-80-80 0-12 2-24 8-34-6-8-8-16-8-24z" fill="url(#cloudGrad)"/>
  <ellipse cx="200" cy="370" rx="30" ry="8" fill="rgba(0,0,0,0.1)"/>
</svg>
