<svg xmlns="http://www.w3.org/2000/svg" width="32" height="32" viewBox="0 0 32 32">
  <defs>
    <linearGradient id="skyGrad" x1="0%" y1="0%" x2="100%" y2="100%">
      <stop offset="0%" style="stop-color:#38bdf8"/>
      <stop offset="100%" style="stop-color:#0284c7"/>
    </linearGradient>
  </defs>
  <circle cx="16" cy="16" r="14" fill="url(#skyGrad)"/>
  <circle cx="12" cy="10" r="3" fill="#fbbf24"/>
  <path d="M8 18c0-2.2 1.8-4 4-4 .7 0 1.4.2 2 .5.6-1.5 2-2.5 3.7-2.5 2.4 0 4.3 1.9 4.3 4.3 0 .2 0 .4-.1.6.1 0 .1 0 .2 0 1.7 0 3 1.3 3 3s-1.3 3-3 3H10c-2.2 0-4-1.8-4-4 0-.6.1-1.2.4-1.7-.3-.4-.4-.8-.4-1.2z" fill="white"/>
</svg>
